<svg width="80" height="80" viewBox="0 0 80 80" fill="none" xmlns="http://www.w3.org/2000/svg">
<rect width="80" height="80" rx="12" fill="#F8F8F8"/>
<path d="M31.7714 32.8892H34.8572L36.9143 30.8574H43.0857L45.1429 32.8892H48.2286C48.7742 32.8892 49.2974 33.1032 49.6832 33.4843C50.069 33.8653 50.2857 34.3821 50.2857 34.9209V47.1114C50.2857 47.6502 50.069 48.167 49.6832 48.5481C49.2974 48.9291 48.7742 49.1431 48.2286 49.1431H31.7714C31.2258 49.1431 30.7026 48.9291 30.3168 48.5481C29.931 48.167 29.7143 47.6502 29.7143 47.1114V34.9209C29.7143 34.3821 29.931 33.8653 30.3168 33.4843C30.7026 33.1032 31.2258 32.8892 31.7714 32.8892ZM40 35.9368C38.636 35.9368 37.3279 36.4719 36.3635 37.4245C35.399 38.3771 34.8572 39.669 34.8572 41.0162C34.8572 42.3633 35.399 43.6552 36.3635 44.6078C37.3279 45.5604 38.636 46.0955 40 46.0955C41.364 46.0955 42.6721 45.5604 43.6366 44.6078C44.601 43.6552 45.1429 42.3633 45.1429 41.0162C45.1429 39.669 44.601 38.3771 43.6366 37.4245C42.6721 36.4719 41.364 35.9368 40 35.9368ZM40 37.9685C40.8184 37.9685 41.6033 38.2896 42.1819 38.8612C42.7606 39.4327 43.0857 40.2079 43.0857 41.0162C43.0857 41.8244 42.7606 42.5996 42.1819 43.1711C41.6033 43.7427 40.8184 44.0638 40 44.0638C39.1816 44.0638 38.3968 43.7427 37.8181 43.1711C37.2394 42.5996 36.9143 41.8244 36.9143 41.0162C36.9143 40.2079 37.2394 39.4327 37.8181 38.8612C38.3968 38.2896 39.1816 37.9685 40 37.9685Z" fill="#C6C6C6"/>
</svg>
